<svg xmlns="http://www.w3.org/2000/svg" viewBox="0 0 100 100">
  <defs>
    <linearGradient id="grad1" x1="0%" y1="0%" x2="100%" y2="100%">
      <stop offset="0%" style="stop-color:#00ffff;stop-opacity:1" />
      <stop offset="100%" style="stop-color:#0080ff;stop-opacity:1" />
    </linearGradient>
    <linearGradient id="grad2" x1="0%" y1="0%" x2="100%" y2="100%">
      <stop offset="0%" style="stop-color:#00ff88;stop-opacity:1" />
      <stop offset="100%" style="stop-color:#00cc66;stop-opacity:1" />
    </linearGradient>
  </defs>
  
  <!-- Background circle -->
  <circle cx="50" cy="50" r="48" fill="#0a0a0a" stroke="url(#grad1)" stroke-width="2"/>
  
  <!-- Dumbbell -->
  <g transform="translate(50,50)">
    <!-- Left weight -->
    <rect x="-22" y="-8" width="8" height="16" rx="2" fill="url(#grad1)"/>
    <rect x="-20" y="-6" width="4" height="12" rx="1" fill="url(#grad2)"/>
    
    <!-- Right weight -->
    <rect x="14" y="-8" width="8" height="16" rx="2" fill="url(#grad1)"/>
    <rect x="16" y="-6" width="4" height="12" rx="1" fill="url(#grad2)"/>
    
    <!-- Bar -->
    <rect x="-14" y="-2" width="28" height="4" rx="2" fill="url(#grad1)"/>
    
    <!-- Center grip -->
    <rect x="-6" y="-3" width="12" height="6" rx="1" fill="#1a1a1a"/>
    <rect x="-5" y="-2" width="2" height="4" rx="0.5" fill="url(#grad2)"/>
    <rect x="-1" y="-2" width="2" height="4" rx="0.5" fill="url(#grad2)"/>
    <rect x="3" y="-2" width="2" height="4" rx="0.5" fill="url(#grad2)"/>
  </g>
  
  <!-- Running figure -->
  <g transform="translate(75,25) scale(0.6)">
    <!-- Head -->
    <circle cx="0" cy="0" r="4" fill="url(#grad2)"/>
    
    <!-- Body -->
    <rect x="-2" y="4" width="4" height="8" rx="1" fill="url(#grad1)"/>
    
    <!-- Arms -->
    <rect x="-6" y="6" width="3" height="1.5" rx="0.5" fill="url(#grad2)" transform="rotate(-20)"/>
    <rect x="3" y="6" width="3" height="1.5" rx="0.5" fill="url(#grad2)" transform="rotate(20)"/>
    
    <!-- Legs -->
    <rect x="-3" y="12" width="2" height="6" rx="0.5" fill="url(#grad1)" transform="rotate(-15)"/>
    <rect x="1" y="12" width="2" height="6" rx="0.5" fill="url(#grad1)" transform="rotate(25)"/>
  </g>
  
  <!-- Energy lines -->
  <g opacity="0.6">
    <path d="M20,30 Q25,25 30,30" stroke="url(#grad2)" stroke-width="1.5" fill="none"/>
    <path d="M70,70 Q75,65 80,70" stroke="url(#grad2)" stroke-width="1.5" fill="none"/>
    <path d="M15,60 Q20,55 25,60" stroke="url(#grad1)" stroke-width="1" fill="none"/>
  </g>
</svg>